{
  "accessors": [
    {
      "bufferView": 2,
      "componentType": 5126,
      "count": 26445,
      "max": [
        27.42300033569336,
        49.801700592041016,
        3.961869955062866
      ],
      "min": [
        -19.011600494384766,
        2.449700117111206,
        -1.6824300289154053
      ],
      "type": "VEC3"
    },
    {
      "bufferView": 2,
      "byteOffset": 317340,
      "componentType": 5126,
      "count": 26445,
      "max": [
        0.9999988079071045,
        0.9995837807655334,
        0.9999997019767761
      ],
      "min": [
        -0.999957263469696,
        -0.9999927282333374,
        -0.9999933242797852
      ],
      "type": "VEC3"
    },
    {
      "bufferView": 1,
      "componentType": 5126,
      "count": 26445,
      "max": [
        0.9916880130767822,
        0.9918829798698425
      ],
      "min": [
        0.008065000176429749,
        0.008345000445842743
      ],
      "type": "VEC2"
    },
    {
      "bufferView": 0,
      "componentType": 5125,
      "count": 137355,
      "type": "SCALAR"
    },
    {
      "bufferView": 2,
      "byteOffset": 634680,
      "componentType": 5126,
      "count": 23224,
      "max": [
        23.364099502563477,
        49.309200286865234,
        3.721519947052002
      ],
      "min": [
        -18.259300231933594,
        2.3594000339508057,
        -1.6544699668884277
      ],
      "type": "VEC3"
    },
    {
      "bufferView": 2,
      "byteOffset": 913368,
      "componentType": 5126,
      "count": 23224,
      "max": [
        0.9999318718910217,
        0.9999571442604065,
        1.0
      ],
      "min": [
        -0.9994168877601624,
        -0.9999963641166687,
        -0.9999984502792358
      ],
      "type": "VEC3"
    },
    {
      "bufferView": 1,
      "byteOffset": 211560,
      "componentType": 5126,
      "count": 23224,
      "max": [
        0.9915270209312439,
        0.9919430017471313
      ],
      "min": [
        0.0080960001796484,
        0.008357999846339226
      ],
      "type": "VEC2"
    },
    {
      "bufferView": 0,
      "byteOffset": 549420,
      "componentType": 5125,
      "count": 116613,
      "type": "SCALAR"
    },
    {
      "bufferView": 2,
      "byteOffset": 1192056,
      "componentType": 5126,
      "count": 23131,
      "max": [
        24.462099075317383,
        49.89030075073242,
        4.235099792480469
      ],
      "min": [
        -18.412700653076172,
        2.435879945755005,
        -1.670300006866455
      ],
      "type": "VEC3"
    },
    {
      "bufferView": 2,
      "byteOffset": 1469628,
      "componentType": 5126,
      "count": 23131,
      "max": [
        0.9999511241912842,
        0.9997420907020569,
        1.0
      ],
      "min": [
        -0.9999911189079285,
        -0.9999903440475464,
        -0.9999998807907104
      ],
      "type": "VEC3"
    },
    {
      "bufferView": 1,
      "byteOffset": 397352,
      "componentType": 5126,
      "count": 23131,
      "max": [
        0.9916989803314209,
        0.991940975189209
      ],
      "min": [
        0.008085000328719616,
        0.008314000442624092
      ],
      "type": "VEC2"
    },
    {
      "bufferView": 0,
      "byteOffset": 1015872,
      "componentType": 5125,
      "count": 114228,
      "type": "SCALAR"
    },
    {
      "bufferView": 2,
      "byteOffset": 1747200,
      "componentType": 5126,
      "count": 26443,
      "max": [
        25.853199005126953,
        49.417701721191406,
        4.6592302322387695
      ],
      "min": [
        -19.00040054321289,
        2.0246400833129883,
        -1.6577500104904175
      ],
      "type": "VEC3"
    },
    {
      "bufferView": 2,
      "byteOffset": 2064516,
      "componentType": 5126,
      "count": 26443,
      "max": [
        0.9999614953994751,
        0.9999970197677612,
        1.0
      ],
      "min": [
        -0.9999451041221619,
        -0.9999983310699463,
        -0.9999984502792358
      ],
      "type": "VEC3"
    },
    {
      "bufferView": 1,
      "byteOffset": 582400,
      "componentType": 5126,
      "count": 26443,
      "max": [
        0.991686999797821,
        0.9919350147247314
      ],
      "min": [
        0.008069000206887722,
        0.008065000176429749
      ],
      "type": "VEC2"
    },
    {
      "bufferView": 0,
      "byteOffset": 1472784,
      "componentType": 5125,
      "count": 121545,
      "type": "SCALAR"
    },
    {
      "bufferView": 2,
      "byteOffset": 2381832,
      "componentType": 5126,
      "count": 2079,
      "max": [
        24.785249710083008,
        49.310298919677734,
        4.0977301597595215
      ],
      "min": [
        -18.276599884033203,
        2.9868900775909424,
        -1.6457699537277222
      ],
      "type": "VEC3"
    },
    {
      "bufferView": 2,
      "byteOffset": 2406780,
      "componentType": 5126,
      "count": 2079,
      "max": [
        0.9996893405914307,
        0.9987010955810547,
        0.9999979734420776
      ],
      "min": [
        -0.9985213279724121,
        -0.9997853636741638,
        -0.9996363520622253
      ],
      "type": "VEC3"
    },
    {
      "bufferView": 1,
      "byteOffset": 793944,
      "componentType": 5126,
      "count": 2079,
      "max": [
        0.9902340173721313,
        0.9902039766311646
      ],
      "min": [
        0.010084000416100025,
        0.011905999854207039
      ],
      "type": "VEC2"
    },
    {
      "bufferView": 0,
      "byteOffset": 1958964,
      "componentType": 5125,
      "count": 7698,
      "type": "SCALAR"
    },
    {
      "bufferView": 2,
      "byteOffset": 2431728,
      "componentType": 5126,
      "count": 884,
      "max": [
        24.64940071105957,
        48.72200012207031,
        3.9579200744628906
      ],
      "min": [
        -13.791299819946289,
        2.931540012359619,
        -1.6390000581741333
      ],
      "type": "VEC3"
    },
    {
      "bufferView": 2,
      "byteOffset": 2442336,
      "componentType": 5126,
      "count": 884,
      "max": [
        0.9976049065589905,
        0.9995632171630859,
        0.9999948740005493
      ],
      "min": [
        -0.9994879961013794,
        -0.9999192357063293,
        -0.9999746680259705
      ],
      "type": "VEC3"
    },
    {
      "bufferView": 1,
      "byteOffset": 810576,
      "componentType": 5126,
      "count": 884,
      "max": [
        0.9882810115814209,
        0.9881089925765991
      ],
      "min": [
        0.012180999852716923,
        0.016126999631524086
      ],
      "type": "VEC2"
    },
    {
      "bufferView": 0,
      "byteOffset": 1989756,
      "componentType": 5125,
      "count": 2313,
      "type": "SCALAR"
    },
    {
      "bufferView": 2,
      "byteOffset": 2452944,
      "componentType": 5126,
      "count": 1035,
      "max": [
        25.75189971923828,
        48.615699768066406,
        3.901097059249878
      ],
      "min": [
        -17.699199676513672,
        3.1444098949432373,
        -1.668234944343567
      ],
      "type": "VEC3"
    },
    {
      "bufferView": 2,
      "byteOffset": 2465364,
      "componentType": 5126,
      "count": 1035,
      "max": [
        0.9997240900993347,
        0.9993013739585876,
        0.9999622106552124
      ],
      "min": [
        -0.9986519813537598,
        -0.9991677403450012,
        -0.9998201131820679
      ],
      "type": "VEC3"
    },
    {
      "bufferView": 1,
      "byteOffset": 817648,
      "componentType": 5126,
      "count": 1035,
      "max": [
        0.984375,
        0.988182008266449
      ],
      "min": [
        0.011745000258088112,
        0.015654999762773514
      ],
      "type": "VEC2"
    },
    {
      "bufferView": 0,
      "byteOffset": 1999008,
      "componentType": 5125,
      "count": 2049,
      "type": "SCALAR"
    },
    {
      "bufferView": 2,
      "byteOffset": 2477784,
      "componentType": 5126,
      "count": 285,
      "max": [
        24.18670082092285,
        48.83660125732422,
        4.687260150909424
      ],
      "min": [
        -18.361799240112305,
        2.4668800830841064,
        -1.6315799951553345
      ],
      "type": "VEC3"
    },
    {
      "bufferView": 2,
      "byteOffset": 2481204,
      "componentType": 5126,
      "count": 285,
      "max": [
        0.9948123693466187,
        0.9774006605148315,
        0.9998325109481812
      ],
      "min": [
        -0.9981433749198914,
        -0.9944853782653809,
        -0.9920191168785095
      ],
      "type": "VEC3"
    },
    {
      "bufferView": 1,
      "byteOffset": 825928,
      "componentType": 5126,
      "count": 285,
      "max": [
        0.9708570241928101,
        0.9882329702377319
      ],
      "min": [
        0.013186000287532806,
        0.7934010028839111
      ],
      "type": "VEC2"
    },
    {
      "bufferView": 0,
      "byteOffset": 2007204,
      "componentType": 5125,
      "count": 507,
      "type": "SCALAR"
    }
  ],
  "asset": {
    "extras": {
      "author": "Invisible Room (https://sketchfab.com/invisibleroom)",
      "license": "CC-BY-NC-SA-4.0 (http://creativecommons.org/licenses/by-nc-sa/4.0/)",
      "source": "https://sketchfab.com/3d-models/fhain-54f175a7935e4bcf91b55b02cf4b9f1c",
      "title": "Fhain"
    },
    "generator": "Sketchfab-12.68.0",
    "version": "2.0"
  },
  "bufferViews": [
    {
      "buffer": 0,
      "byteLength": 2009232,
      "name": "floatBufferViews",
      "target": 34963
    },
    {
      "buffer": 0,
      "byteLength": 828208,
      "byteOffset": 2009232,
      "byteStride": 8,
      "name": "floatBufferViews",
      "target": 34962
    },
    {
      "buffer": 0,
      "byteLength": 2484624,
      "byteOffset": 2837440,
      "byteStride": 12,
      "name": "floatBufferViews",
      "target": 34962
    }
  ],
  "buffers": [
    {
      "byteLength": 5322064,
      "uri": "scene.bin"
    }
  ],
  "extensionsUsed": [
    "KHR_materials_unlit"
  ],
  "images": [
    {
      "uri": "textures/material0000_baseColor.jpeg"
    },
    {
      "uri": "textures/material0001_baseColor.jpeg"
    },
    {
      "uri": "textures/material0002_baseColor.jpeg"
    },
    {
      "uri": "textures/material0003_baseColor.jpeg"
    },
    {
      "uri": "textures/material0004_baseColor.jpeg"
    },
    {
      "uri": "textures/material0005_baseColor.jpeg"
    },
    {
      "uri": "textures/material0006_baseColor.jpeg"
    },
    {
      "uri": "textures/material0007_baseColor.jpeg"
    }
  ],
  "materials": [
    {
      "doubleSided": true,
      "extensions": {
        "KHR_materials_unlit": {}
      },
      "name": "material0000",
      "pbrMetallicRoughness": {
        "baseColorTexture": {
          "index": 0
        },
        "metallicFactor": 0.0
      }
    },
    {
      "doubleSided": true,
      "extensions": {
        "KHR_materials_unlit": {}
      },
      "name": "material0001",
      "pbrMetallicRoughness": {
        "baseColorTexture": {
          "index": 1
        },
        "metallicFactor": 0.0
      }
    },
    {
      "doubleSided": true,
      "extensions": {
        "KHR_materials_unlit": {}
      },
      "name": "material0002",
      "pbrMetallicRoughness": {
        "baseColorTexture": {
          "index": 2
        },
        "metallicFactor": 0.0
      }
    },
    {
      "doubleSided": true,
      "extensions": {
        "KHR_materials_unlit": {}
      },
      "name": "material0003",
      "pbrMetallicRoughness": {
        "baseColorTexture": {
          "index": 3
        },
        "metallicFactor": 0.0
      }
    },
    {
      "doubleSided": true,
      "extensions": {
        "KHR_materials_unlit": {}
      },
      "name": "material0004",
      "pbrMetallicRoughness": {
        "baseColorTexture": {
          "index": 4
        },
        "metallicFactor": 0.0
      }
    },
    {
      "doubleSided": true,
      "extensions": {
        "KHR_materials_unlit": {}
      },
      "name": "material0005",
      "pbrMetallicRoughness": {
        "baseColorTexture": {
          "index": 5
        },
        "metallicFactor": 0.0
      }
    },
    {
      "doubleSided": true,
      "extensions": {
        "KHR_materials_unlit": {}
      },
      "name": "material0006",
      "pbrMetallicRoughness": {
        "baseColorTexture": {
          "index": 6
        },
        "metallicFactor": 0.0
      }
    },
    {
      "doubleSided": true,
      "extensions": {
        "KHR_materials_unlit": {}
      },
      "name": "material0007",
      "pbrMetallicRoughness": {
        "baseColorTexture": {
          "index": 7
        },
        "metallicFactor": 0.0
      }
    }
  ],
  "meshes": [
    {
      "name": "Object_0",
      "primitives": [
        {
          "attributes": {
            "NORMAL": 1,
            "POSITION": 0,
            "TEXCOORD_0": 2
          },
          "indices": 3,
          "material": 0,
          "mode": 4
        }
      ]
    },
    {
      "name": "Object_1",
      "primitives": [
        {
          "attributes": {
            "NORMAL": 5,
            "POSITION": 4,
            "TEXCOORD_0": 6
          },
          "indices": 7,
          "material": 1,
          "mode": 4
        }
      ]
    },
    {
      "name": "Object_2",
      "primitives": [
        {
          "attributes": {
            "NORMAL": 9,
            "POSITION": 8,
            "TEXCOORD_0": 10
          },
          "indices": 11,
          "material": 2,
          "mode": 4
        }
      ]
    },
    {
      "name": "Object_3",
      "primitives": [
        {
          "attributes": {
            "NORMAL": 13,
            "POSITION": 12,
            "TEXCOORD_0": 14
          },
          "indices": 15,
          "material": 3,
          "mode": 4
        }
      ]
    },
    {
      "name": "Object_4",
      "primitives": [
        {
          "attributes": {
            "NORMAL": 17,
            "POSITION": 16,
            "TEXCOORD_0": 18
          },
          "indices": 19,
          "material": 4,
          "mode": 4
        }
      ]
    },
    {
      "name": "Object_5",
      "primitives": [
        {
          "attributes": {
            "NORMAL": 21,
            "POSITION": 20,
            "TEXCOORD_0": 22
          },
          "indices": 23,
          "material": 5,
          "mode": 4
        }
      ]
    },
    {
      "name": "Object_6",
      "primitives": [
        {
          "attributes": {
            "NORMAL": 25,
            "POSITION": 24,
            "TEXCOORD_0": 26
          },
          "indices": 27,
          "material": 6,
          "mode": 4
        }
      ]
    },
    {
      "name": "Object_7",
      "primitives": [
        {
          "attributes": {
            "NORMAL": 29,
            "POSITION": 28,
            "TEXCOORD_0": 30
          },
          "indices": 31,
          "material": 7,
          "mode": 4
        }
      ]
    }
  ],
  "nodes": [
    {
      "children": [
        1
      ],
      "matrix": [
        1.0,
        0.0,
        0.0,
        0.0,
        0.0,
        2.220446049250313e-16,
        -1.0,
        0.0,
        0.0,
        1.0,
        2.220446049250313e-16,
        0.0,
        0.0,
        0.0,
        0.0,
        1.0
      ],
      "name": "Sketchfab_model"
    },
    {
      "children": [
        2,
        3,
        4,
        5,
        6,
        7,
        8,
        9
      ],
      "name": "textured.obj.cleaner.materialmerger.gles"
    },
    {
      "mesh": 0,
      "name": "Object_2"
    },
    {
      "mesh": 1,
      "name": "Object_3"
    },
    {
      "mesh": 2,
      "name": "Object_4"
    },
    {
      "mesh": 3,
      "name": "Object_5"
    },
    {
      "mesh": 4,
      "name": "Object_6"
    },
    {
      "mesh": 5,
      "name": "Object_7"
    },
    {
      "mesh": 6,
      "name": "Object_8"
    },
    {
      "mesh": 7,
      "name": "Object_9"
    }
  ],
  "samplers": [
    {
      "magFilter": 9729,
      "minFilter": 9987,
      "wrapS": 10497,
      "wrapT": 10497
    }
  ],
  "scene": 0,
  "scenes": [
    {
      "name": "Sketchfab_Scene",
      "nodes": [
        0
      ]
    }
  ],
  "textures": [
    {
      "sampler": 0,
      "source": 0
    },
    {
      "sampler": 0,
      "source": 1
    },
    {
      "sampler": 0,
      "source": 2
    },
    {
      "sampler": 0,
      "source": 3
    },
    {
      "sampler": 0,
      "source": 4
    },
    {
      "sampler": 0,
      "source": 5
    },
    {
      "sampler": 0,
      "source": 6
    },
    {
      "sampler": 0,
      "source": 7
    }
  ]
}
